<?xml version="1.0" standalone="no"?>
<!DOCTYPE svg PUBLIC "-//W3C//DTD SVG 20010904//EN"
 "http://www.w3.org/TR/2001/REC-SVG-20010904/DTD/svg10.dtd">
<svg version="1.0" xmlns="http://www.w3.org/2000/svg"
 width="400.000000pt" height="400.000000pt" viewBox="0 0 400.000000 400.000000"
 preserveAspectRatio="xMidYMid meet">
<metadata>
Created by potrace 1.14, written by Peter Selinger 2001-2017
</metadata>
<g transform="translate(0.000000,400.000000) scale(0.100000,-0.100000)"
fill="#000000" stroke="none">
<path d="M1830 3961 c-41 -3 -80 -9 -85 -13 -6 -3 -46 -14 -90 -23 -108 -22
-250 -80 -305 -124 -72 -57 -160 -150 -192 -203 -17 -27 -38 -52 -47 -58 -29
-15 -96 -122 -110 -175 -7 -27 -26 -80 -42 -117 -33 -73 -47 -174 -48 -328 0
-55 -6 -99 -16 -124 -17 -40 -13 -140 6 -152 5 -3 9 -19 9 -35 0 -18 4 -28 10
-24 9 5 12 -2 9 -21 0 -3 6 -15 14 -28 11 -16 14 -46 13 -113 -3 -84 11 -229
20 -220 2 2 9 41 14 85 16 124 29 144 29 45 1 -45 6 -85 11 -88 6 -3 9 -21 9
-38 -1 -23 -3 -26 -6 -10 -3 14 -9 20 -19 16 -17 -6 -20 -93 -3 -93 6 0 8 -7
5 -17 -7 -17 11 -83 22 -82 21 3 31 -4 36 -27 4 -14 12 -24 18 -22 20 7 30 68
20 112 -52 211 -29 521 41 550 9 3 9 5 0 5 -7 1 -1 13 12 27 14 15 25 35 25
44 0 10 7 20 15 24 8 3 15 12 15 20 0 8 11 23 25 34 17 14 25 30 25 51 0 17 4
31 9 31 21 0 41 -13 41 -26 0 -8 5 -14 10 -14 13 0 13 17 0 25 -6 4 -8 11 -5
16 4 5 0 9 -7 9 -8 0 -6 5 5 11 10 6 16 17 13 27 -7 21 8 47 22 38 7 -4 14 8
18 29 5 27 14 39 32 46 15 6 39 24 54 41 28 32 40 35 154 41 53 3 64 1 65 -12
0 -11 3 -9 9 6 7 16 14 20 31 16 15 -4 20 -3 15 5 -4 7 -2 12 3 12 6 0 11 -8
11 -17 0 -11 3 -14 8 -7 11 18 69 44 96 44 13 0 26 5 28 10 2 6 17 13 33 16
17 3 39 14 51 25 11 11 34 19 50 19 42 -1 184 9 221 15 31 6 53 -8 33 -20 -6
-4 -8 -11 -4 -16 4 -6 13 -4 23 5 19 18 94 18 87 1 -2 -6 21 -10 58 -9 33 0
69 -2 78 -4 20 -5 97 -157 105 -207 3 -19 9 -35 12 -35 14 0 41 -59 41 -90 0
-38 24 -86 59 -120 14 -14 37 -48 51 -75 13 -28 33 -61 43 -75 47 -62 68 -162
68 -313 0 -56 -2 -112 -5 -124 -3 -12 -8 -54 -12 -92 -6 -63 -5 -71 12 -78 10
-4 19 -2 22 5 2 7 8 10 13 6 10 -6 11 2 9 67 -1 28 4 52 13 60 10 10 14 40 14
99 1 104 12 172 29 183 8 4 14 15 14 22 0 8 6 15 14 15 12 0 44 -67 48 -100 0
-8 4 27 8 78 7 96 20 121 61 122 20 0 30 21 22 49 -3 12 3 56 13 98 17 74 17
79 0 157 -10 45 -22 128 -27 186 -4 57 -13 127 -20 155 -20 88 -110 253 -183
333 -28 32 -103 63 -151 64 -66 0 -81 6 -82 29 -2 24 -23 52 -23 31 0 -23 -20
-12 -26 15 -18 70 -113 158 -209 193 -195 71 -234 82 -313 91 -138 14 -221 17
-302 10z"/>
<path d="M1342 2670 c-12 -5 -25 -16 -28 -24 -3 -9 -16 -18 -27 -22 -35 -10
-55 -33 -50 -55 3 -10 0 -19 -6 -19 -16 0 -14 -25 4 -40 11 -9 12 -16 5 -25
-8 -9 -4 -14 14 -17 18 -4 26 0 28 11 3 15 4 15 10 0 4 -9 0 -29 -8 -44 -12
-22 -12 -34 -2 -61 9 -27 17 -33 47 -37 20 -2 38 0 41 4 3 4 12 4 20 -2 12 -7
13 -11 2 -18 -10 -6 -4 -14 25 -32 31 -20 51 -24 108 -23 42 0 86 7 109 17 50
22 42 31 -15 18 -57 -14 -179 -14 -179 -1 0 6 -8 10 -17 11 -15 0 -15 2 2 9
28 12 43 12 25 -1 -12 -8 -9 -9 13 -5 15 4 33 3 40 -1 15 -9 79 -4 93 8 6 5
15 5 19 1 5 -4 5 -1 1 6 -5 9 -12 9 -27 2 -12 -7 -19 -7 -19 -1 0 5 -12 9 -27
8 -36 -1 -143 50 -143 69 0 8 4 14 9 14 5 0 16 3 25 6 10 4 16 1 16 -8 0 -8
16 -29 35 -48 19 -19 35 -28 35 -21 0 8 7 10 19 6 22 -7 71 45 71 76 0 26 9
24 58 -12 49 -36 52 -43 15 -35 -16 3 -34 2 -40 -2 -8 -5 10 -13 47 -20 33 -7
60 -17 60 -23 0 -6 5 -7 10 -4 10 6 14 -7 11 -32 -2 -18 60 -5 77 15 6 9 13
34 14 56 1 23 2 50 2 61 1 11 5 26 10 33 5 9 2 15 -10 18 -11 3 -35 27 -54 54
-19 26 -43 53 -53 60 -29 18 -208 61 -227 55 -10 -3 -21 -2 -24 3 -3 5 -30 8
-60 7 -31 0 -56 3 -56 7 0 10 -19 9 -48 -2z m171 -137 c-7 -2 -21 -2 -30 0
-10 3 -4 5 12 5 17 0 24 -2 18 -5z m-98 -13 c-3 -5 -14 -10 -23 -10 -15 0 -15
2 -2 10 20 13 33 13 25 0z m180 -19 c11 -5 -9 -7 -52 -7 -39 1 -66 4 -60 8 15
10 86 9 112 -1z m-30 -51 c3 -5 1 -10 -4 -10 -6 0 -11 5 -11 10 0 6 2 10 4 10
3 0 8 -4 11 -10z m206 -52 c6 -11 8 -22 5 -25 -7 -7 -34 15 -46 38 -8 14 -6
16 10 12 12 -3 25 -14 31 -25z m29 -48 c0 -5 -5 -10 -11 -10 -5 0 -7 5 -4 10
3 6 8 10 11 10 2 0 4 -4 4 -10z"/>
<path d="M2410 2640 c0 -3 -35 -5 -78 -5 -85 -1 -152 -19 -152 -41 0 -17 -16
-19 -23 -1 -4 10 -6 10 -6 0 -1 -7 -11 -13 -23 -13 -34 -1 -63 -27 -63 -58 0
-20 -4 -26 -17 -24 -24 4 -23 -15 2 -28 16 -8 20 -21 20 -60 0 -53 8 -62 27
-31 8 13 23 19 43 19 24 -1 28 -4 19 -15 -9 -10 -8 -18 5 -31 9 -10 16 -23 16
-28 0 -5 28 -24 63 -41 71 -35 164 -51 194 -34 14 8 15 11 3 12 -8 1 -21 1
-27 0 -7 -1 -13 3 -13 9 0 7 -8 9 -19 5 -11 -3 -43 5 -75 20 -59 27 -75 55
-31 55 35 0 31 17 -5 25 -16 4 -30 10 -30 13 0 4 18 20 40 35 l40 28 0 -24 c0
-40 36 -77 75 -77 36 0 85 40 85 69 0 10 8 7 25 -9 l26 -24 -21 -16 c-31 -23
-5 -44 36 -30 16 5 38 8 49 7 12 -1 24 8 32 25 17 34 -2 108 -29 116 -34 8
-19 25 17 19 19 -3 35 -3 35 1 0 4 -12 9 -27 10 -15 1 -32 7 -37 12 -6 6 -15
10 -20 10 -6 0 -4 -5 4 -10 12 -7 10 -11 -10 -18 -14 -5 -29 -7 -35 -4 -5 4
-30 10 -55 13 -43 7 -42 7 15 6 50 -1 60 2 60 16 0 21 3 21 71 6 46 -10 57
-10 64 1 12 20 -6 49 -38 60 -15 6 -36 15 -47 21 -19 12 -185 20 -185 9z m55
-150 c27 -11 -59 -11 -95 0 -20 6 -14 8 25 8 28 0 59 -3 70 -8z m68 -20 c7 0
6 -5 -2 -12 -10 -10 -15 -10 -18 -1 -2 7 -11 9 -20 6 -11 -4 -14 -3 -9 6 5 7
15 10 23 7 8 -3 20 -6 26 -6z m-113 -24 c0 -3 -4 -8 -10 -11 -5 -3 -10 -1 -10
4 0 6 5 11 10 11 6 0 10 -2 10 -4z m150 -11 c7 -8 8 -15 2 -15 -5 0 -15 7 -22
15 -7 8 -8 15 -2 15 5 0 15 -7 22 -15z m-343 -51 c-3 -3 -12 -4 -19 -1 -8 3
-5 6 6 6 11 1 17 -2 13 -5z m13 -37 c0 -7 -9 -13 -20 -13 -25 0 -26 13 -2 19
9 3 18 5 20 6 1 0 2 -5 2 -12z"/>
<path d="M2268 2323 c7 -3 16 -2 19 1 4 3 -2 6 -13 5 -11 0 -14 -3 -6 -6z"/>
<path d="M2315 2320 c-3 -5 -1 -10 4 -10 6 0 11 5 11 10 0 6 -2 10 -4 10 -3 0
-8 -4 -11 -10z"/>
<path d="M2368 2308 c17 -8 26 -8 34 0 9 9 4 12 -22 11 -33 0 -34 -1 -12 -11z"/>
<path d="M2438 2313 c7 -3 16 -2 19 1 4 3 -2 6 -13 5 -11 0 -14 -3 -6 -6z"/>
<path d="M2953 2086 c3 -8 1 -16 -5 -18 -6 -2 -9 -11 -7 -20 3 -12 9 -13 26
-7 20 7 22 11 11 34 -12 26 -34 36 -25 11z"/>
<path d="M1733 2020 c-3 -11 -9 -20 -14 -20 -11 0 -29 -66 -29 -106 0 -23 10
-39 40 -67 39 -35 40 -37 23 -54 -31 -31 -66 -50 -108 -58 -55 -11 -57 -12
-87 -24 -16 -6 -28 -17 -28 -26 0 -8 -4 -15 -8 -15 -5 0 -14 -11 -20 -24 -11
-25 0 -88 20 -113 25 -31 -72 -99 -118 -82 -11 4 -25 4 -31 1 -12 -8 -24 -53
-28 -107 -2 -22 -8 -41 -14 -43 -5 -2 -8 -9 -5 -16 6 -15 -17 -37 -43 -40 -10
-2 -19 -13 -21 -24 -2 -12 -9 -22 -17 -22 -7 0 -20 -3 -29 -6 -13 -5 -16 2
-16 40 0 55 -10 58 -33 10 -10 -19 -14 -33 -9 -30 4 3 6 -22 4 -55 -3 -39 -1
-59 7 -59 6 0 14 -18 17 -40 4 -23 12 -40 19 -40 8 0 17 -14 20 -32 4 -17 17
-50 30 -73 12 -23 25 -51 28 -61 4 -11 16 -35 28 -54 25 -41 79 -146 79 -155
0 -3 20 -41 44 -83 42 -72 126 -167 126 -142 0 6 -11 21 -25 34 -14 13 -25 33
-25 45 0 12 -4 20 -9 16 -12 -7 -53 50 -49 67 4 19 -23 79 -33 72 -8 -4 -4 41
7 75 3 8 -1 11 -10 8 -11 -4 -13 0 -10 18 3 16 -3 29 -19 42 -25 20 -48 51
-29 39 7 -4 18 -4 25 1 6 4 23 9 36 11 21 3 23 1 11 -12 -10 -13 -10 -16 4
-16 9 0 16 -7 16 -15 0 -8 5 -15 10 -15 6 0 10 7 10 15 0 8 5 15 10 15 6 0 10
-9 10 -20 0 -25 27 -27 33 -2 3 9 5 2 6 -16 1 -26 5 -33 19 -30 10 2 17 12 17
25 0 13 5 23 10 23 6 0 10 -10 10 -22 0 -12 6 -23 14 -26 9 -3 11 1 7 16 -9
26 10 38 32 20 9 -8 28 -15 41 -16 13 0 31 -8 40 -16 10 -9 25 -16 34 -16 10
0 25 -4 35 -9 36 -19 99 -30 154 -28 32 1 58 5 58 8 0 4 18 9 40 13 27 4 39
10 34 18 -4 7 -3 8 5 4 6 -4 36 2 67 13 30 12 62 21 70 21 26 0 84 31 84 45 0
7 14 26 31 42 77 71 119 113 112 113 -4 0 8 12 26 28 27 22 34 36 38 77 3 28
11 53 17 57 6 5 2 8 -11 8 -28 0 -37 -14 -22 -38 13 -21 6 -52 -11 -52 -8 0
-9 11 -5 30 6 25 3 32 -17 39 -21 9 -21 10 -3 10 11 1 26 10 33 21 7 11 22 20
34 20 17 0 19 3 10 12 -7 7 -12 20 -12 30 0 10 -5 18 -11 18 -6 0 -3 7 5 16 9
8 16 18 17 22 0 4 2 22 5 40 4 36 -20 56 -38 31 -7 -11 -11 -11 -15 -1 -6 14
-43 16 -43 2 0 -6 8 -14 18 -17 22 -9 47 -33 33 -33 -5 0 -13 5 -16 10 -3 6
-17 10 -30 10 -13 0 -27 5 -31 11 -7 12 -24 -6 -24 -26 0 -5 4 -4 9 4 6 9 11
10 15 2 4 -6 3 -11 -2 -11 -4 0 -17 -8 -28 -18 -10 -10 -28 -21 -38 -25 -15
-6 -17 -10 -8 -19 9 -9 15 -7 26 8 8 10 18 16 22 12 11 -11 -16 -38 -38 -38
-10 0 -30 -12 -43 -26 -13 -14 -29 -23 -34 -19 -7 4 -11 -4 -11 -18 0 -15 -6
-24 -16 -24 -11 0 -14 7 -9 24 4 16 1 23 -10 23 -8 0 -15 -4 -15 -10 0 -5 -7
-10 -16 -10 -10 0 -14 5 -10 15 5 13 2 14 -22 1 -15 -7 -33 -11 -39 -9 -7 3
-13 -2 -13 -11 0 -19 -11 -21 -28 -4 -10 10 -17 10 -33 -1 -14 -8 -25 -9 -31
-3 -6 6 -17 8 -24 5 -8 -3 -16 1 -19 9 -3 8 -23 14 -53 16 -26 1 -48 6 -50 12
-2 5 -8 10 -13 10 -6 0 -7 -4 -4 -10 3 -5 2 -10 -3 -10 -5 0 -12 9 -15 20 -3
12 -14 20 -29 21 -12 1 -16 3 -8 5 9 3 20 15 25 27 13 29 43 34 202 36 76 0
134 5 138 11 3 6 -1 10 -9 10 -9 0 -16 5 -16 10 0 6 9 10 20 10 11 0 20 5 20
10 0 6 -5 10 -11 10 -6 0 -9 6 -6 14 5 12 -3 14 -37 10 -26 -2 -50 1 -61 10
-16 12 -13 14 35 20 29 4 72 18 95 32 23 13 45 21 49 17 4 -4 4 1 0 12 -7 17
-6 18 8 7 8 -7 23 -10 32 -6 9 3 23 1 31 -6 12 -10 15 -9 15 4 0 9 5 16 10 16
6 0 10 -6 10 -14 0 -21 21 -31 31 -15 5 8 9 57 9 110 0 74 -4 99 -15 109 -8 7
-15 18 -15 25 0 12 -89 35 -136 35 -14 0 -42 19 -72 48 l-49 47 31 15 c16 8
31 20 33 25 2 6 -20 21 -48 33 -47 22 -53 23 -82 8 -43 -20 -143 -16 -179 8
-24 16 -30 16 -78 2 -29 -9 -56 -13 -61 -10 -15 9 -10 50 11 104 11 27 17 50
14 50 -3 0 -8 -9 -11 -20z m344 -193 c8 -13 -17 -27 -49 -27 -16 0 -28 -3 -28
-8 0 -4 -9 -13 -20 -20 -16 -10 -24 -10 -40 0 -32 20 -30 33 7 34 18 0 41 8
50 17 17 17 70 20 80 4z m-103 -174 c42 7 49 -12 14 -35 -19 -13 -26 -13 -52
0 -41 20 -41 19 -26 37 10 12 15 13 21 4 4 -8 20 -10 43 -6z m182 -146 c2 -7
1 -23 -3 -35 -8 -20 -9 -19 -19 13 -9 28 -8 35 3 35 7 0 16 -6 19 -13z m-46
-18 c0 -23 -64 -69 -87 -64 -14 3 -23 1 -23 -6 0 -8 -4 -8 -13 -1 -7 6 -22 9
-33 6 -27 -7 -74 12 -74 31 0 8 -4 15 -10 15 -5 0 -10 4 -10 9 0 5 35 8 78 7
42 -1 91 1 107 5 46 11 65 10 65 -2z m385 -298 c3 -5 1 -12 -5 -16 -5 -3 -10
1 -10 9 0 18 6 21 15 7z m-45 -121 c0 -5 -4 -10 -10 -10 -5 0 -10 5 -10 10 0
6 5 10 10 10 6 0 10 -4 10 -10z m-1120 -200 c0 -5 -2 -10 -4 -10 -3 0 -8 5
-11 10 -3 6 -1 10 4 10 6 0 11 -4 11 -10z m47 -17 c3 -7 -4 -11 -16 -10 -12 1
-21 7 -21 15 0 16 32 12 37 -5z m27 -179 c3 -8 2 -12 -4 -9 -6 3 -10 10 -10
16 0 14 7 11 14 -7z"/>
<path d="M1100 1783 c0 -4 5 -15 10 -23 8 -13 10 -13 10 2 0 9 -4 20 -10 23
-5 3 -10 3 -10 -2z"/>
<path d="M1220 1215 c0 -8 4 -15 10 -15 5 0 7 7 4 15 -4 8 -8 15 -10 15 -2 0
-4 -7 -4 -15z"/>
<path d="M2790 1144 c0 -77 1 -84 16 -70 8 9 15 24 15 33 -1 17 -8 99 -10 116
-1 4 -5 7 -11 7 -6 0 -10 -35 -10 -86z"/>
<path d="M2737 924 c-4 -4 -7 -17 -7 -28 1 -19 1 -20 11 -3 11 19 8 43 -4 31z"/>
<path d="M2697 827 c-4 -10 -7 -26 -7 -35 1 -15 2 -15 11 1 6 10 9 25 7 35 -3
16 -4 15 -11 -1z"/>
<path d="M2641 711 c-12 -29 -20 -58 -17 -64 3 -7 5 -6 5 3 1 8 10 33 22 54
11 21 18 43 16 49 -1 5 -13 -13 -26 -42z"/>
<path d="M2600 595 c0 -8 -4 -15 -10 -15 -5 0 -10 -5 -10 -11 0 -17 -53 -119
-62 -119 -4 0 -8 -5 -8 -12 0 -20 49 34 69 76 22 46 36 96 27 96 -3 0 -6 -7
-6 -15z"/>
<path d="M1472 541 c7 -11 16 -17 20 -15 5 3 2 12 -6 20 -21 20 -28 17 -14 -5z"/>
<path d="M1135 415 c-143 -56 -137 -53 -129 -78 3 -12 10 -29 15 -37 6 -11 9
-9 10 10 1 14 1 32 0 40 -1 11 3 10 14 -4 8 -11 15 -27 15 -35 1 -10 6 -7 14
9 14 24 14 24 26 -20 6 -25 13 -49 14 -55 2 -5 2 20 1 58 -1 37 1 67 4 67 3 0
14 -24 22 -52 l17 -53 2 60 1 60 20 -40 19 -40 -3 53 c-1 28 1 52 4 52 4 0 14
-24 23 -52 l16 -53 -5 65 -5 65 15 -40 14 -40 -6 40 c-3 22 -7 42 -10 44 -9
11 -33 6 -108 -24z"/>
<path d="M1564 421 c9 -16 13 -31 10 -34 -3 -3 10 -5 30 -4 28 1 33 4 24 14
-7 9 -14 10 -23 3 -16 -14 -27 24 -12 39 8 8 3 11 -16 11 -27 0 -27 0 -13 -29z"/>
<path d="M2845 386 c-9 -73 0 -83 14 -15 7 33 8 56 2 62 -6 6 -12 -12 -16 -47z"/>
<path d="M2890 416 c0 -7 -3 -28 -6 -45 -9 -45 12 -39 24 7 l10 37 1 -37 c1
-21 5 -38 10 -38 7 0 23 71 17 76 -1 1 -13 4 -28 8 -21 5 -28 3 -28 -8z"/>
<path d="M2968 403 c-2 -5 -1 -24 3 -43 3 -19 7 -26 8 -15 1 11 4 30 7 43 6
20 -10 33 -18 15z"/>
<path d="M3011 363 c0 -31 2 -34 9 -18 12 28 12 55 0 55 -5 0 -10 -17 -9 -37z"/>
<path d="M3061 365 c1 -40 1 -40 11 -12 7 21 7 32 -1 40 -8 8 -11 0 -10 -28z"/>
<path d="M3100 358 c0 -25 3 -29 10 -18 13 20 13 50 0 50 -5 0 -10 -15 -10
-32z"/>
<path d="M3147 370 c-3 -11 -2 -22 3 -25 4 -3 10 6 12 20 6 30 -7 34 -15 5z"/>
<path d="M3302 360 c0 -19 2 -27 5 -17 2 9 2 25 0 35 -3 9 -5 1 -5 -18z"/>
<path d="M3186 365 c-3 -8 -1 -15 4 -15 6 0 10 7 10 15 0 8 -2 15 -4 15 -2 0
-6 -7 -10 -15z"/>
<path d="M3222 355 c0 -16 2 -22 5 -12 2 9 2 23 0 30 -3 6 -5 -1 -5 -18z"/>
<path d="M3250 366 c0 -8 5 -18 10 -21 6 -3 10 3 10 14 0 12 -4 21 -10 21 -5
0 -10 -6 -10 -14z"/>
<path d="M3331 364 c0 -11 3 -14 6 -6 3 7 2 16 -1 19 -3 4 -6 -2 -5 -13z"/>
<path d="M1610 355 c33 -19 50 -18 26 0 -11 8 -27 15 -35 15 -10 -1 -7 -6 9
-15z"/>
<path d="M970 320 c0 -16 5 -30 10 -30 6 0 10 14 10 30 0 17 -4 30 -10 30 -5
0 -10 -13 -10 -30z"/>
<path d="M936 325 c4 -8 8 -15 10 -15 2 0 4 7 4 15 0 8 -4 15 -10 15 -5 0 -7
-7 -4 -15z"/>
<path d="M902 305 c0 -16 2 -22 5 -12 2 9 2 23 0 30 -3 6 -5 -1 -5 -18z"/>
<path d="M861 298 c0 -13 4 -32 9 -43 7 -15 9 -10 9 23 1 23 -3 42 -9 42 -5 0
-10 -10 -9 -22z"/>
<path d="M773 276 c6 -48 17 -59 17 -18 0 18 0 35 1 39 0 4 -5 9 -11 11 -8 3
-10 -7 -7 -32z"/>
<path d="M814 294 c3 -9 6 -22 6 -30 0 -9 5 -12 10 -9 17 10 12 55 -6 55 -11
0 -14 -5 -10 -16z"/>
<path d="M1351 294 c0 -11 3 -14 6 -6 3 7 2 16 -1 19 -3 4 -6 -2 -5 -13z"/>
<path d="M748 270 c2 -16 6 -30 8 -30 2 0 4 14 4 30 0 17 -4 30 -8 30 -5 0 -7
-13 -4 -30z"/>
<path d="M1201 284 c0 -11 3 -14 6 -6 3 7 2 16 -1 19 -3 4 -6 -2 -5 -13z"/>
<path d="M1241 284 c0 -11 3 -14 6 -6 3 7 2 16 -1 19 -3 4 -6 -2 -5 -13z"/>
<path d="M710 269 c0 -11 5 -17 10 -14 6 3 10 13 10 21 0 8 -4 14 -10 14 -5 0
-10 -9 -10 -21z"/>
<path d="M1391 264 c0 -11 3 -14 6 -6 3 7 2 16 -1 19 -3 4 -6 -2 -5 -13z"/>
<path d="M1361 254 c0 -11 3 -14 6 -6 3 7 2 16 -1 19 -3 4 -6 -2 -5 -13z"/>
<path d="M1440 256 c0 -23 16 -27 17 -5 1 10 -2 19 -8 19 -5 0 -9 -6 -9 -14z"/>
<path d="M1162 240 c0 -14 2 -19 5 -12 2 6 2 18 0 25 -3 6 -5 1 -5 -13z"/>
<path d="M1489 223 c10 -21 21 -45 23 -53 3 -8 5 8 4 35 -1 43 -4 50 -23 53
l-22 3 18 -38z"/>
<path d="M1535 250 c-3 -5 0 -12 6 -15 6 -4 8 -19 5 -34 -5 -21 -4 -23 5 -11
9 12 10 11 6 -7 -3 -13 -2 -25 3 -28 4 -2 7 18 7 45 0 31 -4 51 -13 54 -7 3
-16 1 -19 -4z"/>
<path d="M2648 254 c-5 -4 -8 -19 -8 -33 1 -23 2 -24 11 -8 11 19 9 53 -3 41z"/>
<path d="M1582 244 c3 -5 18 -35 33 -67 15 -32 29 -56 31 -54 8 7 -42 121 -55
125 -8 3 -12 1 -9 -4z"/>
<path d="M1251 224 c0 -11 3 -14 6 -6 3 7 2 16 -1 19 -3 4 -6 -2 -5 -13z"/>
<path d="M2523 234 c-7 -3 -10 -11 -7 -19 3 -7 1 -16 -5 -20 -6 -3 -11 -18
-10 -33 0 -24 2 -23 19 14 25 58 40 64 29 13 -6 -23 -8 -44 -5 -46 3 -3 36 82
36 94 0 5 -43 2 -57 -3z"/>
<path d="M2600 215 c0 -14 2 -25 4 -25 2 0 6 11 8 25 3 14 1 25 -3 25 -5 0 -9
-11 -9 -25z"/>
<path d="M1371 214 c0 -11 3 -14 6 -6 3 7 2 16 -1 19 -3 4 -6 -2 -5 -13z"/>
<path d="M2465 183 c-20 -47 -12 -54 14 -12 23 38 26 49 11 49 -5 0 -17 -16
-25 -37z"/>
<path d="M1666 160 c20 -43 24 -47 24 -29 0 8 -10 25 -21 39 l-20 25 17 -35z"/>
<path d="M2417 173 c-2 -10 -8 -27 -12 -38 -4 -11 4 -5 19 14 30 40 30 41 12
41 -7 0 -16 -8 -19 -17z"/>
<path d="M2361 137 c-17 -42 -13 -67 5 -28 8 19 13 39 10 45 -2 6 -9 -2 -15
-17z"/>
<path d="M2310 125 c0 -8 2 -15 4 -15 2 0 6 7 10 15 3 8 1 15 -4 15 -6 0 -10
-7 -10 -15z"/>
<path d="M1820 100 c6 -11 13 -20 16 -20 2 0 0 9 -6 20 -6 11 -13 20 -16 20
-2 0 0 -9 6 -20z"/>
<path d="M1882 75 c6 -14 13 -24 14 -22 6 6 -9 47 -17 47 -5 0 -3 -11 3 -25z"/>
<path d="M2262 80 c0 -14 2 -19 5 -12 2 6 2 18 0 25 -3 6 -5 1 -5 -13z"/>
</g>
</svg>
