<?xml version="1.0" standalone="no"?>
<!DOCTYPE svg PUBLIC "-//W3C//DTD SVG 20010904//EN"
 "http://www.w3.org/TR/2001/REC-SVG-20010904/DTD/svg10.dtd">
<svg version="1.0" xmlns="http://www.w3.org/2000/svg"
 width="260.000000pt" height="260.000000pt" viewBox="0 0 260.000000 260.000000"
 preserveAspectRatio="xMidYMid meet">
<metadata>
Created by potrace 1.14, written by Peter Selinger 2001-2017
</metadata>
<g transform="translate(0.000000,260.000000) scale(0.100000,-0.100000)"
fill="#000000" stroke="none">
<path d="M1155 2383 c-163 -23 -303 -88 -370 -172 -86 -107 -161 -292 -172
-423 -8 -94 4 -195 26 -222 21 -25 42 -86 29 -84 -17 4 -21 -34 -12 -101 6
-46 8 -52 15 -31 4 14 7 40 8 59 1 19 4 32 7 28 10 -10 11 -81 2 -94 -17 -21
3 -83 38 -119 46 -47 52 -29 29 96 -25 135 -17 226 25 311 17 35 38 72 47 81
8 9 12 21 9 26 -5 9 42 37 57 34 4 -1 6 4 5 10 -2 7 2 12 9 11 6 -1 23 14 38
33 15 19 33 33 40 30 7 -2 18 1 24 7 6 6 16 12 23 13 85 14 159 40 249 85 73
37 79 39 129 29 29 -6 67 -10 84 -10 32 0 60 -28 61 -60 1 -8 6 -14 11 -13 6
1 32 -39 57 -90 26 -51 63 -121 82 -157 20 -36 45 -98 56 -139 19 -68 20 -83
10 -165 -7 -50 -14 -101 -17 -112 -8 -32 24 -40 36 -10 5 13 18 33 30 44 11
10 25 33 30 51 7 26 5 35 -12 51 -16 14 -19 26 -14 47 4 15 10 42 13 58 l7 30
12 -40 12 -40 1 53 c1 40 9 67 33 110 27 48 32 67 32 122 -1 81 -35 219 -76
305 -53 112 -157 185 -240 168 -25 -5 -28 -2 -28 19 0 26 -40 93 -69 116 -9 7
-37 24 -63 37 -43 23 -58 25 -160 24 -62 -1 -126 -4 -143 -6z"/>
<path d="M1460 1670 c-31 -4 -66 -12 -78 -19 -12 -6 -22 -9 -22 -6 0 9 -55
-22 -69 -39 -15 -18 -79 -13 -124 10 -55 29 -131 47 -198 46 -54 0 -74 -5
-108 -26 -43 -27 -45 -37 -32 -115 1 -3 8 4 16 15 18 23 19 14 3 -22 -10 -22
-10 -28 6 -39 10 -8 24 -11 32 -8 8 3 25 -2 39 -11 13 -9 31 -16 40 -16 9 0
14 -4 10 -9 -6 -11 66 -2 79 9 4 5 -1 13 -13 19 -17 10 -20 9 -15 -4 4 -8 1
-15 -6 -15 -6 0 -8 5 -5 10 3 6 -4 10 -17 10 -24 0 -77 35 -67 44 3 3 16 -2
30 -11 38 -28 58 -26 71 5 7 15 13 29 14 31 2 2 15 -6 29 -17 23 -18 23 -21 8
-25 -10 -3 -3 -5 16 -6 19 0 43 -9 54 -18 18 -17 20 -17 38 6 11 14 17 32 13
45 -4 18 1 24 30 34 41 15 82 1 72 -25 -3 -8 0 -23 8 -34 13 -20 14 -20 19 1
3 11 13 20 23 20 9 0 15 -3 11 -6 -8 -9 23 -39 60 -58 30 -15 134 -24 120 -10
-8 8 61 44 84 44 22 0 33 33 20 59 -17 31 -13 42 12 36 20 -5 24 -3 23 17 -1
25 -35 58 -59 58 -8 0 -20 6 -26 13 -14 18 -57 14 -53 -4 3 -10 -1 -10 -15 2
-14 11 -31 14 -73 9z m-444 -108 c-2 -4 -19 -8 -38 -9 -27 -2 -29 0 -13 7 25
11 58 12 51 2z m548 0 c2 -4 -12 -6 -32 -4 -56 5 -62 10 -15 11 23 1 44 -3 47
-7z m-69 -82 c9 0 27 11 40 24 28 29 46 15 19 -15 -21 -23 -52 -24 -99 -2 -33
16 -34 18 -18 35 16 18 17 17 29 -12 7 -16 20 -30 29 -30z m-340 9 c11 -17 -1
-21 -15 -4 -8 9 -8 15 -2 15 6 0 14 -5 17 -11z"/>
<path d="M1115 1270 c-21 -41 -19 -60 10 -90 30 -31 26 -52 -13 -70 -15 -7
-39 -19 -54 -27 -16 -8 -28 -11 -28 -6 0 4 -9 -7 -20 -25 -15 -24 -17 -37 -10
-52 6 -11 15 -29 20 -40 11 -22 -3 -34 -31 -28 -8 2 -13 -2 -12 -9 2 -7 -6
-10 -18 -8 -11 2 -22 -2 -26 -10 -3 -8 -9 -12 -14 -9 -5 3 -7 -1 -4 -8 13 -36
13 -68 1 -68 -20 0 -18 -77 2 -109 16 -25 16 -26 -3 -11 -20 15 -20 14 -1 -8
11 -12 26 -20 33 -17 8 2 12 1 9 -4 -8 -12 31 -44 43 -36 7 3 8 0 5 -9 -3 -9
-2 -16 3 -16 12 0 53 -34 53 -44 0 -4 -13 0 -30 9 -16 9 -30 20 -30 26 0 6 -5
9 -12 7 -6 -2 -24 8 -38 24 -15 15 -31 28 -36 28 -5 0 -20 14 -34 30 -27 33
-56 41 -46 13 24 -61 221 -303 247 -303 6 0 7 5 4 10 -3 6 0 10 7 11 7 0 4 4
-7 9 -19 8 -19 9 3 9 12 1 22 -4 22 -11 0 -6 3 -8 6 -5 10 9 46 -12 39 -24 -4
-5 1 -9 10 -9 9 0 13 5 9 11 -8 13 35 3 50 -12 6 -5 21 -9 35 -8 15 0 20 3 13
6 -6 2 -10 9 -6 14 3 5 -9 9 -25 9 -17 0 -31 5 -31 11 0 6 -7 9 -15 5 -9 -3
-15 0 -15 10 0 8 -4 13 -8 10 -5 -3 -28 1 -53 8 -32 10 -40 16 -27 21 10 4 14
13 11 23 -5 11 -2 14 10 9 11 -4 14 -2 10 8 -3 8 -9 12 -15 9 -9 -6 -37 23
-38 38 0 3 30 -9 68 -28 53 -28 79 -35 128 -36 62 -1 134 17 134 32 0 5 -6 7
-14 4 -8 -3 -17 -1 -20 5 -3 5 10 15 29 21 19 6 35 18 35 25 0 7 13 24 28 37
16 12 48 39 71 58 23 19 39 40 37 47 -3 7 1 10 8 7 21 -8 31 17 13 31 -9 7
-14 15 -10 18 12 13 -13 7 -27 -5 -12 -11 -12 -10 -1 5 7 9 19 17 27 17 7 0
15 3 18 8 2 4 -11 8 -29 8 -20 0 -31 -4 -28 -10 4 -5 0 -7 -9 -3 -10 3 -29 -6
-49 -24 -18 -16 -35 -29 -38 -30 -38 -5 -66 -3 -79 8 -10 7 -35 13 -57 13 -22
0 -51 7 -65 14 -17 10 -30 11 -43 5 -9 -6 -23 -7 -29 -3 -7 4 -8 3 -4 -4 9
-16 -7 -15 -22 0 -9 9 -12 9 -12 -2 0 -7 -3 -10 -7 -7 -3 4 -11 3 -18 -3 -7
-6 -19 0 -36 18 -41 45 -33 57 41 59 144 5 266 15 277 25 7 6 10 22 6 39 -4
19 -1 29 7 29 7 0 10 6 7 13 -7 18 26 38 44 26 23 -15 57 -10 63 9 6 19 2 58
-8 83 -7 16 -77 49 -103 49 -6 0 -14 7 -17 16 -3 8 -10 12 -16 9 -17 -11 -11
16 10 43 l21 26 -24 12 c-12 7 -48 11 -77 10 -30 -1 -68 2 -83 7 -20 7 -36 5
-60 -6 -30 -15 -32 -15 -35 3 -2 10 2 28 8 39 6 12 8 21 6 21 -3 0 -12 -13
-21 -30z m190 -90 c-3 -5 -12 -10 -18 -10 -7 0 -6 4 3 10 19 12 23 12 15 0z
m-10 -104 c-19 -8 -36 -10 -47 -4 -10 5 -18 10 -18 11 0 1 21 3 48 4 47 2 47
2 17 -11z m93 -101 c-7 -12 -13 -15 -15 -8 -3 7 -11 9 -19 6 -7 -3 -11 -9 -8
-14 3 -5 -2 -9 -10 -9 -9 0 -16 -4 -16 -10 0 -14 -73 -12 -91 3 -47 39 -43 43
43 46 45 1 84 3 86 6 2 2 12 3 22 2 15 -1 17 -5 8 -22z m-278 -28 c0 -4 0 -11
0 -17 0 -13 -26 -13 -52 1 -17 9 -18 13 -7 20 16 10 60 7 59 -4z m245 -37 c-3
-5 -13 -6 -21 -3 -12 4 -13 8 -3 14 15 9 32 2 24 -11z m175 -164 c0 -2 -8 -10
-17 -17 -16 -13 -17 -12 -4 4 13 16 21 21 21 13z"/>
<path d="M1770 1140 c0 -5 5 -10 11 -10 5 0 7 5 4 10 -3 6 -8 10 -11 10 -2 0
-4 -4 -4 -10z"/>
<path d="M756 1114 c-4 -9 -4 -19 -1 -22 3 -3 11 0 17 6 9 9 9 15 1 23 -7 7
-12 5 -17 -7z"/>
<path d="M1670 944 c-6 -14 -10 -28 -10 -32 1 -10 24 31 26 46 4 21 -6 13 -16
-14z"/>
<path d="M1596 778 c3 -5 10 -6 15 -3 13 9 11 12 -6 12 -8 0 -12 -4 -9 -9z"/>
<path d="M790 730 c-13 -38 -20 -43 -169 -121 -149 -77 -242 -116 -503 -210
l-118 -42 0 -178 0 -179 486 0 486 0 -6 23 c-3 12 -38 150 -78 307 -58 231
-71 300 -71 363 -1 42 -4 77 -7 77 -4 0 -13 -18 -20 -40z"/>
<path d="M1733 707 c7 -46 5 -94 -6 -182 -9 -66 -23 -174 -32 -240 -8 -66 -18
-136 -22 -155 -6 -33 -6 -34 -13 -10 -7 21 -8 18 -9 -16 -1 -23 -4 -56 -7 -73
l-6 -31 481 0 481 0 0 179 0 180 -80 31 c-45 17 -120 43 -168 59 -176 57 -296
104 -428 167 -74 35 -140 64 -145 64 -5 0 -18 20 -29 45 -11 25 -21 45 -23 45
-2 0 1 -28 6 -63z"/>
<path d="M1666 652 c-13 -26 -101 -140 -117 -152 -3 -3 -12 -16 -19 -29 -9
-19 -14 -21 -21 -10 -8 13 -13 6 -10 -13 0 -5 -7 -9 -17 -9 -9 -1 -4 -4 11 -8
l29 -6 -31 -40 c-76 -97 -79 -100 -103 -87 -24 12 -49 15 -112 13 -39 -1 -39
-1 -21 -21 14 -15 15 -20 4 -17 -8 2 -11 2 -6 0 4 -3 7 -11 7 -19 0 -9 10 -14
28 -13 23 2 24 2 4 6 -12 2 -20 8 -17 13 3 5 13 6 21 3 9 -3 20 0 25 8 7 11
10 12 21 1 11 -11 9 -17 -11 -33 -31 -25 -17 -24 25 2 36 22 44 32 18 22 -12
-4 -15 -2 -12 8 3 8 15 13 29 11 36 -4 76 17 98 52 10 17 44 72 75 121 61 98
129 225 121 225 -2 0 -11 -13 -19 -28z"/>
<path d="M1120 480 c0 -5 9 -14 20 -20 16 -8 20 -8 20 4 0 7 -7 17 -16 20 -21
8 -24 8 -24 -4z"/>
<path d="M1179 478 c7 -10 25 -17 40 -17 l26 2 -25 4 c-14 3 -32 10 -40 16
-13 11 -13 10 -1 -5z"/>
<path d="M1405 420 c-13 -6 -15 -9 -5 -9 8 0 22 4 30 9 18 12 2 12 -25 0z"/>
<path d="M1293 404 c11 -11 66 -14 72 -4 4 6 -11 10 -36 10 -23 0 -40 -3 -36
-6z"/>
<path d="M1090 386 c0 -2 7 -7 16 -10 8 -3 12 -2 9 4 -6 10 -25 14 -25 6z"/>
<path d="M1000 300 c-22 -22 -40 -44 -40 -49 0 -5 -3 -18 -6 -28 -4 -13 -3
-14 3 -5 8 10 19 3 47 -28 21 -23 40 -40 42 -37 3 3 -2 22 -10 42 -23 55 -20
60 15 26 31 -31 54 -41 47 -19 -2 6 5 21 16 32 12 12 15 21 8 24 -6 2 -9 9 -6
16 7 18 -34 66 -57 66 -10 0 -37 -18 -59 -40z"/>
<path d="M1155 320 c10 -11 23 -20 29 -20 6 0 3 5 -7 11 -9 6 -15 14 -12 20 4
5 -2 9 -11 9 -16 0 -16 -1 1 -20z"/>
<path d="M1520 316 c-5 -13 -15 -28 -23 -33 -14 -7 -21 -31 -18 -61 0 -7 6
-10 11 -7 6 3 10 -3 10 -15 0 -12 4 -19 8 -16 5 3 19 -4 31 -15 12 -11 25 -17
30 -14 5 3 13 0 16 -5 5 -7 12 -5 21 7 13 17 13 17 14 -2 1 -14 5 -10 16 15
25 58 8 116 -46 153 -34 24 -59 21 -70 -7z"/>
<path d="M1248 323 c6 -2 18 -2 25 0 6 3 1 5 -13 5 -14 0 -19 -2 -12 -5z"/>
<path d="M1250 170 c0 -5 5 -10 11 -10 5 0 7 5 4 10 -3 6 -8 10 -11 10 -2 0
-4 -4 -4 -10z"/>
</g>
</svg>
